<?xml version="1.0" encoding="UTF-8" standalone="no"?>

<svg
   width="6.7749195mm"
   height="19.699429mm"
   viewBox="0 0 6.7749195 19.699429"
   version="1.1"
   id="svg1"
   xml:space="preserve"
   xmlns:inkscape="http://www.inkscape.org/namespaces/inkscape"
   xmlns:sodipodi="http://sodipodi.sourceforge.net/DTD/sodipodi-0.dtd"
   xmlns="http://www.w3.org/2000/svg"
   xmlns:svg="http://www.w3.org/2000/svg"><sodipodi:namedview
     id="namedview1"
     pagecolor="#000000"
     bordercolor="#000000"
     borderopacity="0.25"
     inkscape:showpageshadow="2"
     inkscape:pageopacity="0.0"
     inkscape:pagecheckerboard="0"
     inkscape:deskcolor="#d1d1d1"
     inkscape:document-units="mm" /><defs
     id="defs1" /><g
     inkscape:label="Layer 1"
     inkscape:groupmode="layer"
     id="layer1"
     transform="translate(-31.025886,-29.085559)"><g
       id="g3"><g
         style="fill:none"
         id="g1"
         transform="matrix(0.26458333,0,0,0.26458333,24.87226,24.760759)"><path
           d="m 37.2966,16.7734 h -2.472 c -5.876,0 -10.684,4.808 -10.684,10.684 v 16.933 c 0,5.876 4.808,10.684 10.684,10.684 h 2.472 c 5.876,0 10.684,-4.808 10.684,-10.684 v -16.933 c 0,-5.876 -4.808,-10.684 -10.684,-10.684 z"
           fill="#ffffff"
           id="path1" /><path
           d="m 36.0603,22.1123 c -0.5495,0.0016 -1.0762,0.2206 -1.4648,0.6092 -0.3886,0.3886 -0.6076,0.9152 -0.6092,1.4648 v 5.834 c 0.0019,0.5494 0.221,1.0758 0.6096,1.4642 0.3886,0.3883 0.915,0.6072 1.4644,0.6088 0.5494,-0.0016 1.0759,-0.2205 1.4645,-0.6088 0.3885,-0.3884 0.6077,-0.9148 0.6095,-1.4642 v -5.834 c -0.0016,-0.5496 -0.2206,-1.0762 -0.6092,-1.4648 -0.3886,-0.3886 -0.9152,-0.6076 -1.4648,-0.6092 z"
           fill="#064d9f"
           id="path2" /><path
           d="m 34.499,18.0381 c 0.5136,0.1237 1.0132,0.2996 1.491,0.525 2.695,1.292 5.082,3.223 5.385,7.487 0.388,5.455 -1.63,15.669 -2.28,20.857 -0.453,3.627 -2.247,5.307 -4.63,7.21 -1.2,0.961 5.267,0.844 7.93,-0.713 0.22,-0.129 0.425,-0.248 0.618,-0.359 1.1904,-0.6875 2.1815,-1.6726 2.8761,-2.8588 0.6946,-1.1862 1.0688,-2.5327 1.0859,-3.9072 l 0.256,-20.468 c 0.013,-1.043 -0.157,-2.087 -0.567,-3.046 -0.878,-2.053 -3.007,-5.008 -7.985,-5.01 0,0 -6.725,-0.346 -4.18,0.283 z"
           fill="#127fff"
           id="path3" /><path
           d="m 38.8298,54.5007 h -5.537 c -4.97,0 -9.035,-4.065 -9.035,-9.034 v -19.087 c 0,-4.969 4.066,-9.034 9.035,-9.034 h 5.536 c 4.97,0 9.035,4.065 9.035,9.034 v 19.087 c 0,4.969 -4.066,9.034 -9.035,9.034"
           stroke="#064d9f"
           stroke-width="2"
           stroke-linecap="round"
           stroke-linejoin="round"
           id="path4" /></g><g
         style="fill:none"
         id="g2"
         transform="matrix(0.26458333,0,0,0.26458333,30.538577,40.847485)"><path
           fill-rule="evenodd"
           clip-rule="evenodd"
           d="m 18.7501,26.25 c 0,0.9946 -0.3951,1.9484 -1.0984,2.6516 C 16.9485,29.6049 15.9946,30 15.0001,30 c -0.9946,0 -1.9484,-0.3951 -2.6517,-1.0984 -0.7032,-0.7032 -1.0983,-1.657 -1.0983,-2.6516 0,-0.9946 0.3951,-1.9484 1.0983,-2.6516 0.7033,-0.7033 1.6571,-1.0984 2.6517,-1.0984 0.9945,0 1.9484,0.3951 2.6516,1.0984 0.7033,0.7032 1.0984,1.657 1.0984,2.6516 z M 22.0876,9.67313 C 21.8239,9.40978 21.4665,9.26186 21.0938,9.26186 c -0.3726,0 -0.73,0.14792 -0.9937,0.41127 L 16.4063,13.3669 V 1.40625 c 0,-0.37296 -0.1481,-0.730646 -0.4119,-0.994369 C 15.7307,0.148158 15.373,0 15.0001,0 14.6271,0 14.2694,0.148158 14.0057,0.411881 13.742,0.675604 13.5938,1.03329 13.5938,1.40625 V 13.3669 L 9.90008,9.67313 C 9.6335,9.42472 9.28091,9.28949 8.9166,9.29592 8.55228,9.30235 8.20469,9.44993 7.94704,9.70758 7.68939,9.96523 7.5418,10.3128 7.53538,10.6771 c -0.00643,0.3644 0.1288,0.7169 0.3772,0.9835 l 6.09372,6.0938 0.9938,0.9956 0.9937,-0.9937 6.0938,-6.0938 c 0.1307,-0.1306 0.2343,-0.2857 0.305,-0.4563 0.0708,-0.1707 0.1072,-0.3536 0.1072,-0.5384 0,-0.1847 -0.0364,-0.3677 -0.1072,-0.5383 -0.0707,-0.17072 -0.1743,-0.32578 -0.305,-0.45637 z"
           fill="#ffffff"
           id="path1-2" /></g></g></g></svg>
